<svg width="28" height="28" viewBox="0 0 28 28" fill="none" xmlns="http://www.w3.org/2000/svg">
<g clip-path="url(#clip0_87_2091)">
<path d="M26.6572 8.96121L25.6667 8.18654V2.33338H23.3333V6.35954L16.1572 0.743211C14.8867 -0.248456 13.1145 -0.249622 11.844 0.743211L1.34283 8.96004C0.49 9.62854 0 10.6342 0 11.7169V28H28V11.7169C28 10.633 27.51 9.62854 26.6572 8.96121ZM25.6667 25.6667H2.33333V11.7169C2.33333 11.3552 2.49667 11.0204 2.78133 10.7975L13.2813 2.58188C13.7037 2.24938 14.2963 2.25054 14.7187 2.58188L25.2187 10.7999C25.5033 11.0215 25.6667 11.3575 25.6667 11.718V25.6667ZM9.33333 21H18.6667V11.6667H9.33333V21ZM11.6667 14H16.3333V18.6667H11.6667V14Z" fill="#D39B29"/>
</g>
<defs>
<clipPath id="clip0_87_2091">
<rect width="28" height="28" fill="white"/>
</clipPath>
</defs>
</svg>
