<svg width="27" height="27" viewBox="0 0 27 27" fill="none" xmlns="http://www.w3.org/2000/svg">
<g clip-path="url(#clip0_87_2095)">
<path d="M2.05869 2.04737L3.23994 1.02362C4.60119 -0.337627 6.80619 -0.337627 8.16744 1.02362C8.20119 1.05737 10.2824 3.76862 10.2824 3.76862C11.5649 5.11862 11.5649 7.24487 10.2824 8.58362L8.97744 10.2261C10.6199 13.9499 13.1737 16.5149 16.7737 18.0449L18.4162 16.7286C19.7549 15.4349 21.8924 15.4349 23.2312 16.7286C23.2312 16.7286 25.9424 18.8099 25.9762 18.8436C27.3374 20.2049 27.3374 22.4099 26.0324 23.7149L24.9074 25.0086C23.6137 26.3024 21.8699 27.0111 19.9799 27.0111C11.3849 27.0111 -5.72205e-05 15.6149 -5.72205e-05 7.03112C-5.72205e-05 5.15237 0.708693 3.39737 2.05869 2.05862V2.04737ZM19.9799 24.7499C21.2624 24.7499 22.4437 24.2774 23.2537 23.4561L24.3787 22.1624C24.8399 21.7011 24.8624 20.9474 24.4237 20.4636C24.4237 20.4636 21.7349 18.3936 21.7012 18.3599C21.2399 17.8986 20.4299 17.8986 19.9574 18.3599C19.9237 18.3936 17.6624 20.2049 17.6624 20.2049C17.3474 20.4524 16.9312 20.5199 16.5599 20.3736C11.9024 18.5961 8.56119 15.2661 6.63744 10.4624C6.49119 10.0911 6.54744 9.66362 6.80619 9.33737C6.80619 9.33737 8.61744 7.06487 8.63994 7.04237C9.12369 6.55862 9.12369 5.78237 8.63994 5.29862C8.60619 5.26487 6.53619 2.57612 6.53619 2.57612C6.05244 2.13737 5.29869 2.14862 4.78119 2.66612L3.59994 3.68987C2.73369 4.55612 2.24994 5.73737 2.24994 7.01987C2.24994 14.8499 13.2412 24.7499 19.9799 24.7499Z" fill="black"/>
</g>
<defs>
<clipPath id="clip0_87_2095">
<rect width="27" height="27" fill="white" transform="matrix(-1 0 0 1 27 0)"/>
</clipPath>
</defs>
</svg>
