<svg width="31" height="31" viewBox="0 0 31 31" fill="none" xmlns="http://www.w3.org/2000/svg">
<g clip-path="url(#clip0_87_2097)">
<path d="M25.8333 12.9167H24.5417V10.3333C24.5417 7.48392 22.2244 5.16667 19.375 5.16667H18.0472C17.7242 2.26429 15.2572 0 12.2708 0C9.2845 0 6.81612 2.26429 6.4945 5.16667H5.16667C2.31725 5.16667 0 7.48392 0 10.3333V18.0833C0 21.6445 2.89721 24.5417 6.45833 24.5417H7.75C7.75 28.1028 10.6472 31 14.2083 31H24.5417C28.1028 31 31 28.1028 31 24.5417V18.0833C31 15.2339 28.6827 12.9167 25.8333 12.9167ZM12.2708 2.58333C13.8299 2.58333 15.1345 3.69417 15.4354 5.16667H9.10625C9.40592 3.69417 10.7105 2.58333 12.2708 2.58333ZM6.45833 21.9583C4.32192 21.9583 2.58333 20.2197 2.58333 18.0833V10.3333C2.58333 8.90862 3.74196 7.75 5.16667 7.75H6.45833V10.3333C6.45833 11.0476 7.037 11.625 7.75 11.625C8.463 11.625 9.04167 11.0476 9.04167 10.3333V7.75H15.5V10.3333C15.5 11.0476 16.0787 11.625 16.7917 11.625C17.5047 11.625 18.0833 11.0476 18.0833 10.3333V7.75H19.375C20.7997 7.75 21.9583 8.90862 21.9583 10.3333V12.9167H12.9167C10.0672 12.9167 7.75 15.2339 7.75 18.0833V21.9583H6.45833ZM28.4167 24.5417C28.4167 26.6781 26.6781 28.4167 24.5417 28.4167H14.2083C12.0719 28.4167 10.3333 26.6781 10.3333 24.5417V18.0833C10.3333 16.6586 11.492 15.5 12.9167 15.5H25.8333C27.258 15.5 28.4167 16.6586 28.4167 18.0833V24.5417ZM24.5417 19.375V20.6667C24.5417 23.5161 22.2244 25.8333 19.375 25.8333C16.5256 25.8333 14.2083 23.5161 14.2083 20.6667V19.375C14.2083 18.6607 14.787 18.0833 15.5 18.0833C16.213 18.0833 16.7917 18.6607 16.7917 19.375V20.6667C16.7917 22.0914 17.9503 23.25 19.375 23.25C20.7997 23.25 21.9583 22.0914 21.9583 20.6667V19.375C21.9583 18.6607 22.537 18.0833 23.25 18.0833C23.963 18.0833 24.5417 18.6607 24.5417 19.375Z" fill="black"/>
</g>
<defs>
<clipPath id="clip0_87_2097">
<rect width="31" height="31" fill="white"/>
</clipPath>
</defs>
</svg>
