<svg width="31" height="31" viewBox="0 0 31 31" fill="none" xmlns="http://www.w3.org/2000/svg">
<g clip-path="url(#clip0_87_2093)">
<path d="M27.125 7.74992H6.45833C5.34879 7.74992 4.29867 7.26942 3.57146 6.45954C4.28188 5.66646 5.31392 5.16659 6.45833 5.16659H29.7083C30.4226 5.16659 31 4.58792 31 3.87492C31 3.16192 30.4226 2.58325 29.7083 2.58325H6.45833C2.89204 2.58325 0 5.47529 0 9.04159V21.9583C0 25.5245 2.89204 28.4166 6.45833 28.4166H27.125C29.2653 28.4166 31 26.6819 31 24.5416V11.6249C31 9.48463 29.2653 7.74992 27.125 7.74992ZM28.4167 24.5416C28.4167 25.2533 27.838 25.8333 27.125 25.8333H6.45833C4.32192 25.8333 2.58333 24.0947 2.58333 21.9583V9.039C3.68642 9.86438 5.04267 10.3333 6.45833 10.3333H27.125C27.838 10.3333 28.4167 10.9132 28.4167 11.6249V24.5416ZM25.8333 18.0833C25.8333 18.7963 25.2547 19.3749 24.5417 19.3749C23.8287 19.3749 23.25 18.7963 23.25 18.0833C23.25 17.3703 23.8287 16.7916 24.5417 16.7916C25.2547 16.7916 25.8333 17.3703 25.8333 18.0833Z" fill="black"/>
</g>
<defs>
<clipPath id="clip0_87_2093">
<rect width="31" height="31" fill="white"/>
</clipPath>
</defs>
</svg>
